HIERARCHY
ROOT Hips
{
    OFFSET 0.000000 0.000000 0.000000
    CHANNELS 6 Xposition Yposition Zposition Zrotation Xrotation Yrotation
    JOINT Chest
    {
        OFFSET -0.000000 0.078597 0.000000
        CHANNELS 3 Zrotation Xrotation Yrotation
        JOINT Chest2
        {
            OFFSET -0.000000 0.230468 0.000000
            CHANNELS 3 Zrotation Xrotation Yrotation
            JOINT Neck
            {
                OFFSET -0.000000 0.249638 0.000000
                CHANNELS 3 Zrotation Xrotation Yrotation
                JOINT Head
                {
                    OFFSET -0.000000 0.103998 0.019170
                    CHANNELS 3 Zrotation Xrotation Yrotation
                    End Site
                    {
                        OFFSET -0.000000 0.191701 0.000000
                    }
                }
            }
            JOINT LeftCollar
            {
                OFFSET 0.038274 0.205938 -0.001496
                CHANNELS 3 Zrotation Xrotation Yrotation
                JOINT LeftShoulder
                {
                    OFFSET 0.132388 0.000000 0.000000
                    CHANNELS 3 Zrotation Xrotation Yrotation
                    JOINT LeftElbow
                    {
                        OFFSET 0.250301 0.000000 0.000000
                        CHANNELS 3 Zrotation Xrotation Yrotation
                        JOINT LeftWrist
                        {
                            OFFSET 0.285291 0.000000 0.000000
                            CHANNELS 3 Zrotation Xrotation Yrotation
                            End Site
                            {
                                OFFSET 0.000000 -0.143776 0.000000
                            }
                        }
                    }
                }
            }
            JOINT RightCollar
            {
                OFFSET -0.038406 0.205938 -0.001496
                CHANNELS 3 Zrotation Xrotation Yrotation
                JOINT RightShoulder
                {
                    OFFSET -0.132388 0.000000 0.000000
                    CHANNELS 3 Zrotation Xrotation Yrotation
                    JOINT RightElbow
                    {
                        OFFSET -0.250301 0.000000 0.000000
                        CHANNELS 3 Zrotation Xrotation Yrotation
                        JOINT RightWrist
                        {
                            OFFSET -0.285291 0.000000 0.000000
                            CHANNELS 3 Zrotation Xrotation Yrotation
                            End Site
                            {
                                OFFSET -0.000000 -0.143776 0.000000
                            }
                        }
                    }
                }
            }
        }
    }
    JOINT LeftHip
    {
        OFFSET 0.095851 0.000000 0.000000
        CHANNELS 3 Zrotation Xrotation Yrotation
        JOINT LeftKnee
        {
            OFFSET -0.000000 -0.406444 0.000000
            CHANNELS 3 Zrotation Xrotation Yrotation
            JOINT LeftAnkle
            {
                OFFSET -0.000000 -0.408443 0.000000
                CHANNELS 3 Zrotation Xrotation Yrotation
                JOINT LeftToe
                {
                    OFFSET -0.000000 -0.062303 0.143776
                    CHANNELS 3 Zrotation Xrotation Yrotation
                    End Site
                    {
                        OFFSET -0.000000 0.000000 0.038340
                    }
                }
            }
        }
    }
    JOINT RightHip
    {
        OFFSET -0.095851 0.000000 0.000000
        CHANNELS 3 Zrotation Xrotation Yrotation
        JOINT RightKnee
        {
            OFFSET -0.000000 -0.406444 0.000000
            CHANNELS 3 Zrotation Xrotation Yrotation
            JOINT RightAnkle
            {
                OFFSET -0.000000 -0.408443 0.000000
                CHANNELS 3 Zrotation Xrotation Yrotation
                JOINT RightToe
                {
                    OFFSET -0.000000 -0.062303 0.143776
                    CHANNELS 3 Zrotation Xrotation Yrotation
                    End Site
                    {
                        OFFSET -0.000000 0.000000 0.038340
                    }
                }
            }
        }
    }
}
MOTION
Frames:    13
Frame Time:    0.016667
0.027142    0.881096    0.128803    -1.587490    3.159397    -172.588516    2.183952    3.470149    2.360344    -6.290835    6.408976    1.159377    4.569073    12.477927    -13.143332    3.836659    3.208840    -13.055671    5.884761    2.075538    -8.509384    -48.447041    44.911716    -26.838596    4.585799    -1.742010    -43.312359    89.439873    -5.707947    -0.108561    -0.219653    -10.348628    16.853291    53.433395    18.022461    12.222614    26.708199    -31.674820    111.839767    -68.026314    -11.760570    -57.690094    9.412701    -0.106874    0.350567    -2.121825    9.296755    0.189669    -11.461777    -7.743749    7.656855    0.000000    0.000000    0.000000    -2.076859    3.356416    -0.174444    3.704695    9.767255    -0.251838    -3.231136    -16.427452    -15.277559    0.000000    0.000000    0.000000    
0.027142    0.881096    0.128803    -1.587490    3.159397    -172.588516    2.183952    3.470149    2.360344    -6.290835    6.408976    1.159377    4.569073    12.477927    -13.143332    3.836659    3.208840    -13.055671    5.884761    2.075538    -8.509384    -48.447041    44.911716    -26.838596    4.585799    -1.742010    -43.312359    89.439873    -5.707947    -0.108561    -0.219653    -10.348628    16.853291    53.433395    18.022461    12.222614    26.708199    -31.674820    111.839767    -68.026314    -11.760570    -57.690094    9.412701    -0.106874    0.350567    -2.121825    9.296755    0.189669    -11.461777    -7.743749    7.656855    0.000000    0.000000    0.000000    -2.076859    3.356416    -0.174444    3.704695    9.767255    -0.251838    -3.231136    -16.427452    -15.277559    0.000000    0.000000    0.000000    
0.027142    0.881096    0.128803    -1.587490    3.159397    -172.588516    2.183952    3.470149    2.360344    -6.290835    6.408976    1.159377    4.569073    12.477927    -13.143332    3.836659    3.208840    -13.055671    5.884761    2.075538    -8.509384    -48.447041    44.911716    -26.838596    4.585799    -1.742010    -43.312359    89.439873    -5.707947    -0.108561    -0.219653    -10.348628    16.853291    53.433395    18.022461    12.222614    26.708199    -31.674820    111.839767    -68.026314    -11.760570    -57.690094    9.412701    -0.106874    0.350567    -2.121825    9.296755    0.189669    -11.461777    -7.743749    7.656855    0.000000    0.000000    0.000000    -2.076859    3.356416    -0.174444    3.704695    9.767255    -0.251838    -3.231136    -16.427452    -15.277559    0.000000    0.000000    0.000000    
0.014875    0.881164    0.126312    -1.051018    3.658236    -174.456223    1.858381    2.908244    2.380910    -6.126626    6.018546    1.130354    4.246725    11.920939    -12.988432    3.717515    3.459316    -12.984351    5.871322    1.747355    -8.690975    -48.645458    44.675610    -26.539772    4.284482    -1.079365    -42.006672    89.347496    -5.802363    -0.599537    -0.468692    -10.334485    17.145922    53.760990    18.611376    12.099090    27.134150    -31.692356    111.777275    -68.603844    -11.294113    -58.202026    9.226432    0.508535    0.332412    -2.504031    10.498741    1.629550    -10.282283    -9.475682    7.566387    0.000000    0.000000    0.000000    -2.502796    3.823607    0.371717    3.655111    9.779094    0.359354    -2.377209    -16.178539    -14.586674    0.000000    0.000000    0.000000    
0.014875    0.881164    0.126312    -1.051018    3.658236    -174.456223    1.858381    2.908244    2.380910    -6.126626    6.018546    1.130354    4.246725    11.920939    -12.988432    3.717515    3.459316    -12.984351    5.871322    1.747355    -8.690975    -48.645458    44.675610    -26.539772    4.284482    -1.079365    -42.006672    89.347496    -5.802363    -0.599537    -0.468692    -10.334485    17.145922    53.760990    18.611376    12.099090    27.134150    -31.692356    111.777275    -68.603844    -11.294113    -58.202026    9.226432    0.508535    0.332412    -2.504031    10.498741    1.629550    -10.282283    -9.475682    7.566387    0.000000    0.000000    0.000000    -2.502796    3.823607    0.371717    3.655111    9.779094    0.359354    -2.377209    -16.178539    -14.586674    0.000000    0.000000    0.000000    
0.014875    0.881164    0.126312    -1.051018    3.658236    -174.456223    1.858381    2.908244    2.380910    -6.126626    6.018546    1.130354    4.246725    11.920939    -12.988432    3.717515    3.459316    -12.984351    5.871322    1.747355    -8.690975    -48.645458    44.675610    -26.539772    4.284482    -1.079365    -42.006672    89.347496    -5.802363    -0.599537    -0.468692    -10.334485    17.145922    53.760990    18.611376    12.099090    27.134150    -31.692356    111.777275    -68.603844    -11.294113    -58.202026    9.226432    0.508535    0.332412    -2.504031    10.498741    1.629550    -10.282283    -9.475682    7.566387    0.000000    0.000000    0.000000    -2.502796    3.823607    0.371717    3.655111    9.779094    0.359354    -2.377209    -16.178539    -14.586674    0.000000    0.000000    0.000000    
0.014875    0.881164    0.126312    -1.051018    3.658236    -174.456223    1.858381    2.908244    2.380910    -6.126626    6.018546    1.130354    4.246725    11.920939    -12.988432    3.717515    3.459316    -12.984351    5.871322    1.747355    -8.690975    -48.645458    44.675610    -26.539772    4.284482    -1.079365    -42.006672    89.347496    -5.802363    -0.599537    -0.468692    -10.334485    17.145922    53.760990    18.611376    12.099090    27.134150    -31.692356    111.777275    -68.603844    -11.294113    -58.202026    9.226432    0.508535    0.332412    -2.504031    10.498741    1.629550    -10.282283    -9.475682    7.566387    0.000000    0.000000    0.000000    -2.502796    3.823607    0.371717    3.655111    9.779094    0.359354    -2.377209    -16.178539    -14.586674    0.000000    0.000000    0.000000    
0.014875    0.881164    0.126312    -1.051018    3.658236    -174.456223    1.858381    2.908244    2.380910    -6.126626    6.018546    1.130354    4.246725    11.920939    -12.988432    3.717515    3.459316    -12.984351    5.871322    1.747355    -8.690975    -48.645458    44.675610    -26.539772    4.284482    -1.079365    -42.006672    89.347496    -5.802363    -0.599537    -0.468692    -10.334485    17.145922    53.760990    18.611376    12.099090    27.134150    -31.692356    111.777275    -68.603844    -11.294113    -58.202026    9.226432    0.508535    0.332412    -2.504031    10.498741    1.629550    -10.282283    -9.475682    7.566387    0.000000    0.000000    0.000000    -2.502796    3.823607    0.371717    3.655111    9.779094    0.359354    -2.377209    -16.178539    -14.586674    0.000000    0.000000    0.000000    
0.014875    0.881164    0.126312    -1.051018    3.658236    -174.456223    1.858381    2.908244    2.380910    -6.126626    6.018546    1.130354    4.246725    11.920939    -12.988432    3.717515    3.459316    -12.984351    5.871322    1.747355    -8.690975    -48.645458    44.675610    -26.539772    4.284482    -1.079365    -42.006672    89.347496    -5.802363    -0.599537    -0.468692    -10.334485    17.145922    53.760990    18.611376    12.099090    27.134150    -31.692356    111.777275    -68.603844    -11.294113    -58.202026    9.226432    0.508535    0.332412    -2.504031    10.498741    1.629550    -10.282283    -9.475682    7.566387    0.000000    0.000000    0.000000    -2.502796    3.823607    0.371717    3.655111    9.779094    0.359354    -2.377209    -16.178539    -14.586674    0.000000    0.000000    0.000000    
0.005303    0.880145    0.124859    -0.599557    4.079263    -176.160736    1.210344    3.003636    2.647782    -5.532571    4.670455    1.118112    2.550358    8.982400    -12.333081    2.913725    1.343189    -12.600120    5.762071    2.023297    -9.048211    -48.144466    44.734440    -26.486300    3.010757    -1.263608    -41.130989    90.194237    -5.689885    0.143688    -0.404499    -10.017459    17.416195    54.564289    19.408663    12.173731    27.100595    -32.151287    111.249557    -68.740631    -11.710360    -58.147823    9.350894    0.380518    0.582281    -3.364275    12.776750    2.065615    -9.159127    -11.544425    8.311380    0.000000    0.000000    0.000000    -2.905861    3.982786    1.054618    3.752597    10.007449    0.911646    -1.800948    -16.279392    -14.231824    0.000000    0.000000    0.000000    
0.005303    0.880145    0.124859    -0.599557    4.079263    -176.160736    1.210344    3.003636    2.647782    -5.532571    4.670455    1.118112    2.550358    8.982400    -12.333081    2.913725    1.343189    -12.600120    5.762071    2.023297    -9.048211    -48.144466    44.734440    -26.486300    3.010757    -1.263608    -41.130989    90.194237    -5.689885    0.143688    -0.404499    -10.017459    17.416195    54.564289    19.408663    12.173731    27.100595    -32.151287    111.249557    -68.740631    -11.710360    -58.147823    9.350894    0.380518    0.582281    -3.364275    12.776750    2.065615    -9.159127    -11.544425    8.311380    0.000000    0.000000    0.000000    -2.905861    3.982786    1.054618    3.752597    10.007449    0.911646    -1.800948    -16.279392    -14.231824    0.000000    0.000000    0.000000    
0.005303    0.880145    0.124859    -0.599557    4.079263    -176.160736    1.210344    3.003636    2.647782    -5.532571    4.670455    1.118112    2.550358    8.982400    -12.333081    2.913725    1.343189    -12.600120    5.762071    2.023297    -9.048211    -48.144466    44.734440    -26.486300    3.010757    -1.263608    -41.130989    90.194237    -5.689885    0.143688    -0.404499    -10.017459    17.416195    54.564289    19.408663    12.173731    27.100595    -32.151287    111.249557    -68.740631    -11.710360    -58.147823    9.350894    0.380518    0.582281    -3.364275    12.776750    2.065615    -9.159127    -11.544425    8.311380    0.000000    0.000000    0.000000    -2.905861    3.982786    1.054618    3.752597    10.007449    0.911646    -1.800948    -16.279392    -14.231824    0.000000    0.000000    0.000000    
0.005303    0.880145    0.124859    -0.599557    4.079263    -176.160736    1.210344    3.003636    2.647782    -5.532571    4.670455    1.118112    2.550358    8.982400    -12.333081    2.913725    1.343189    -12.600120    5.762071    2.023297    -9.048211    -48.144466    44.734440    -26.486300    3.010757    -1.263608    -41.130989    90.194237    -5.689885    0.143688    -0.404499    -10.017459    17.416195    54.564289    19.408663    12.173731    27.100595    -32.151287    111.249557    -68.740631    -11.710360    -58.147823    9.350894    0.380518    0.582281    -3.364275    12.776750    2.065615    -9.159127    -11.544425    8.311380    0.000000    0.000000    0.000000    -2.905861    3.982786    1.054618    3.752597    10.007449    0.911646    -1.800948    -16.279392    -14.231824    0.000000    0.000000    0.000000    
